<svg width="173" height="43" viewBox="0 0 173 43" fill="none" xmlns="http://www.w3.org/2000/svg">
<g id="logo">
<path id="element" d="M35.2424 27.2631C33.4382 27.2631 31.7078 27.9798 30.432 29.2556C29.1562 30.5314 28.4395 32.2618 28.4395 34.066C28.4395 35.8703 29.1562 37.6007 30.432 38.8765C31.7078 40.1523 33.4382 40.869 35.2424 40.869H42.0454V34.066C42.0454 32.2618 41.3286 30.5314 40.0528 29.2556C38.777 27.9798 37.0467 27.2631 35.2424 27.2631Z" fill="#0099FF"/>
<path id="element_2" d="M20.6589 39.1767V40.8179C15.2461 40.8179 10.055 38.6677 6.22763 34.8403C2.40022 31.0129 0.25 25.8218 0.25 20.409C0.25 14.9962 2.40022 9.80512 6.22763 5.97771C10.055 2.1503 15.2461 9.77922e-05 20.6589 9.77922e-05C22.0009 -0.00410139 23.3399 0.126944 24.6556 0.391261C20.3733 1.23972 16.476 3.43896 13.5359 6.66599C10.5957 9.89302 8.76787 13.9778 8.32067 18.3203C7.87348 22.6629 8.83052 27.0345 11.0513 30.793C13.272 34.5515 16.6394 37.4988 20.6589 39.2022V39.1767Z" fill="#0099FF"/>
<path id="element_3" d="M41.0844 20.4005H36.8326C35.3031 20.4021 33.8027 19.9824 32.4962 19.1874C31.1896 18.3923 30.1273 17.2527 29.4258 15.8936C28.3906 13.8923 26.7052 12.3028 24.6467 11.3866C23.463 10.8573 22.1866 10.5663 20.8904 10.5302C19.5943 10.4942 18.3037 10.7138 17.0923 11.1765C15.881 11.6393 14.7727 12.336 13.8307 13.2271C12.8887 14.1182 12.1314 15.1861 11.6021 16.3698C11.0727 17.5535 10.7817 18.8299 10.7457 20.1261C10.7097 21.4223 10.9293 22.7129 11.392 23.9242C11.8547 25.1355 12.5515 26.2438 13.4426 27.1858C14.3336 28.1278 15.4015 28.8851 16.5852 29.4145C17.8074 29.9779 18.8415 30.8814 19.5638 32.0169C20.2861 33.1525 20.6662 34.472 20.6585 35.8178V39.2192C16.639 37.5159 13.2716 34.5685 11.0509 30.81C8.83013 27.0515 7.87308 22.68 8.32028 18.3374C8.76747 13.9948 10.5953 9.91006 13.5355 6.68303C16.4756 3.456 20.3729 1.25679 24.6552 0.408325C29.278 1.33723 33.4381 3.83433 36.4318 7.47727C39.4255 11.1202 41.069 15.6853 41.0844 20.4005Z" fill="#2CAAFF"/>
<g id="element_4">
<path d="M59.1787 34.2955C57.5005 34.2955 55.9502 33.8262 54.528 32.8875C53.1342 31.9204 52.0106 30.6119 51.1573 28.9621C50.3324 27.2839 49.9199 25.3781 49.9199 23.2447C49.9199 21.1113 50.3466 19.2055 51.1999 17.5273C52.0533 15.849 53.2053 14.5263 54.656 13.5592C56.1351 12.5921 57.7849 12.1085 59.6054 12.1085C61.5965 12.1085 63.1041 12.6205 64.1281 13.6445C65.1806 14.6401 65.8917 15.977 66.2615 17.6553C66.6597 19.3335 66.8588 21.1967 66.8588 23.2447C66.8588 24.3256 66.7451 25.5061 66.5175 26.7861C66.2899 28.0377 65.8917 29.2466 65.3228 30.4128C64.7824 31.5506 64.0144 32.4893 63.0188 33.2288C62.0232 33.94 60.7432 34.2955 59.1787 34.2955ZM60.0321 31.0528C61.4828 31.0528 62.6775 30.6973 63.6161 29.9861C64.5833 29.275 65.2944 28.3363 65.7495 27.1701C66.2046 25.9754 66.4322 24.6669 66.4322 23.2447C66.4322 21.6802 66.1904 20.3149 65.7068 19.1486C65.2517 17.9539 64.5406 17.0295 63.5735 16.3753C62.6348 15.6926 61.4543 15.3512 60.0321 15.3512C57.8987 15.3512 56.2489 16.105 55.0827 17.6126C53.9164 19.0917 53.3333 20.9691 53.3333 23.2447C53.3333 24.7523 53.6178 26.1034 54.1867 27.2981C54.784 28.4643 55.5805 29.3888 56.576 30.0715C57.6 30.7257 58.7521 31.0528 60.0321 31.0528ZM66.4322 12.5352H69.8456V33.8689H66.7308C66.7308 33.8689 66.7024 33.6129 66.6455 33.1008C66.6171 32.5888 66.5744 31.9915 66.5175 31.3088C66.4606 30.6261 66.4322 30.0572 66.4322 29.6021V12.5352Z" fill="white"/>
<path d="M80.0574 30.4981C78.5498 30.4981 77.1133 30.1426 75.748 29.4315C74.4111 28.6919 73.3159 27.6394 72.4626 26.2741C71.6377 24.9087 71.2252 23.2731 71.2252 21.3673C71.2252 19.4615 71.6377 17.8259 72.4626 16.4606C73.2875 15.0668 74.3684 14.0001 75.7053 13.2605C77.0422 12.4925 78.4929 12.1085 80.0574 12.1085C80.5409 12.1085 80.9961 12.1512 81.4227 12.2365C81.8779 12.2934 82.3045 12.393 82.7028 12.5352H91.3642V16.2046C90.1411 16.2046 88.918 15.977 87.6948 15.5219C86.5001 15.0668 85.4761 14.5974 84.6228 14.1139L84.4521 13.9432C85.4477 14.4837 86.2584 15.1237 86.8842 15.8632C87.5384 16.6028 88.0219 17.4419 88.3348 18.3806C88.6762 19.2909 88.8468 20.2864 88.8468 21.3673C88.8468 23.2731 88.4344 24.9087 87.6095 26.2741C86.813 27.6394 85.7464 28.6919 84.4094 29.4315C83.0725 30.1426 81.6219 30.4981 80.0574 30.4981ZM86.3295 42.4023V41.4636C86.3295 39.9561 85.9312 38.8609 85.1348 38.1783C84.3668 37.4956 83.2005 37.1542 81.6361 37.1542H77.3693C76.4307 37.1542 75.6058 37.0689 74.8946 36.8982C74.212 36.756 73.6431 36.5285 73.1879 36.2156C72.7328 35.9027 72.3915 35.5187 72.1639 35.0635C71.9364 34.6084 71.8226 34.0964 71.8226 33.5275C71.8226 32.4466 72.1497 31.6359 72.8039 31.0955C73.4582 30.5266 74.2688 30.171 75.236 30.0288C76.2031 29.8866 77.1276 29.8866 78.0094 30.0288L80.0574 30.4981C78.5214 30.5835 77.3267 30.7399 76.4733 30.9675C75.6484 31.195 75.236 31.6786 75.236 32.4182C75.236 32.8448 75.3924 33.2004 75.7053 33.4848C76.0467 33.7409 76.5444 33.8689 77.1987 33.8689H81.6361C83.1152 33.8689 84.4663 34.068 85.6895 34.4662C86.9126 34.8929 87.8939 35.5898 88.6335 36.5569C89.3731 37.5525 89.7429 38.9036 89.7429 40.6103V42.4023H86.3295ZM80.0574 27.2981C80.9961 27.2981 81.8636 27.0705 82.6601 26.6154C83.485 26.1603 84.1534 25.4918 84.6655 24.61C85.1775 23.7283 85.4335 22.6473 85.4335 21.3673C85.4335 20.0873 85.1775 19.0064 84.6655 18.1246C84.1819 17.2144 83.5277 16.5317 82.7028 16.0766C81.8779 15.593 80.9961 15.3512 80.0574 15.3512C79.1187 15.3512 78.2369 15.593 77.412 16.0766C76.5871 16.5317 75.9187 17.2002 75.4066 18.0819C74.8946 18.9637 74.6386 20.0589 74.6386 21.3673C74.6386 22.6473 74.8946 23.7283 75.4066 24.61C75.9187 25.4918 76.5871 26.1603 77.412 26.6154C78.2369 27.0705 79.1187 27.2981 80.0574 27.2981Z" fill="white"/>
<path d="M101.651 34.2955C99.8302 34.2955 98.1236 33.8546 96.5306 32.9728C94.9377 32.091 93.6435 30.8253 92.6479 29.1754C91.6808 27.4972 91.1972 25.5203 91.1972 23.2447C91.1972 20.9691 91.6808 19.0064 92.6479 17.3566C93.6435 15.6784 94.9377 14.3841 96.5306 13.4739C98.1236 12.5636 99.8302 12.1085 101.651 12.1085C103.471 12.1085 105.164 12.5636 106.728 13.4739C108.321 14.3841 109.601 15.6784 110.568 17.3566C111.535 19.0064 112.019 20.9691 112.019 23.2447C112.019 25.5203 111.535 27.4972 110.568 29.1754C109.601 30.8253 108.321 32.091 106.728 32.9728C105.164 33.8546 103.471 34.2955 101.651 34.2955ZM101.651 31.0955C102.845 31.0955 103.969 30.7968 105.021 30.1995C106.074 29.6021 106.927 28.7203 107.581 27.5541C108.264 26.3594 108.605 24.9229 108.605 23.2447C108.605 21.5664 108.264 20.1442 107.581 18.978C106.927 17.7833 106.074 16.873 105.021 16.2473C103.969 15.6215 102.845 15.3086 101.651 15.3086C100.456 15.3086 99.3182 15.6215 98.2373 16.2473C97.1849 16.8446 96.3173 17.7406 95.6346 18.9353C94.9519 20.1015 94.6106 21.538 94.6106 23.2447C94.6106 24.9229 94.9377 26.3594 95.592 27.5541C96.2746 28.7203 97.1564 29.6021 98.2373 30.1995C99.3182 30.7968 100.456 31.0955 101.651 31.0955Z" fill="white"/>
<path d="M113.364 12.5352H116.777V33.8689H113.364V12.5352ZM124.116 12.1085C125.254 12.1085 126.278 12.2792 127.188 12.6205C128.098 12.9619 128.866 13.4597 129.492 14.1139C130.118 14.7681 130.601 15.5646 130.943 16.5033C131.284 17.4135 131.455 18.4517 131.455 19.618V33.8689H128.041V20.4713C128.041 18.8215 127.657 17.5842 126.889 16.7593C126.121 15.9344 124.969 15.5219 123.433 15.5219C122.267 15.5219 121.186 15.8206 120.191 16.4179C119.195 17.0153 118.37 17.8402 117.716 18.8926C117.09 19.9166 116.706 21.1113 116.564 22.4767L116.521 20.002C116.663 18.8073 116.948 17.7264 117.375 16.7593C117.83 15.7921 118.384 14.9672 119.039 14.2846C119.721 13.5734 120.489 13.033 121.343 12.6632C122.224 12.2934 123.149 12.1085 124.116 12.1085Z" fill="white"/>
<path d="M152.947 25.8474C152.748 27.611 152.179 29.1328 151.24 30.4128C150.33 31.6644 149.178 32.6315 147.784 33.3142C146.39 33.9684 144.883 34.2955 143.261 34.2955C141.441 34.2955 139.734 33.8546 138.141 32.9728C136.548 32.091 135.254 30.8253 134.259 29.1754C133.291 27.4972 132.808 25.5203 132.808 23.2447C132.808 20.9691 133.291 19.0064 134.259 17.3566C135.254 15.6784 136.548 14.3841 138.141 13.4739C139.734 12.5636 141.441 12.1085 143.261 12.1085C144.883 12.1085 146.376 12.4499 147.741 13.1325C149.135 13.8152 150.287 14.7823 151.197 16.0339C152.136 17.2855 152.719 18.7788 152.947 20.514H149.832C149.349 18.8926 148.509 17.6268 147.315 16.7166C146.12 15.7779 144.769 15.3086 143.261 15.3086C142.038 15.3086 140.886 15.6215 139.805 16.2473C138.724 16.873 137.857 17.7833 137.203 18.978C136.548 20.1442 136.221 21.5664 136.221 23.2447C136.221 24.8945 136.548 26.3167 137.203 27.5114C137.857 28.6777 138.71 29.5737 139.763 30.1995C140.844 30.7968 142.01 31.0955 143.261 31.0955C144.996 31.0955 146.405 30.6404 147.485 29.7301C148.595 28.7914 149.391 27.4972 149.875 25.8474H152.947Z" fill="white"/>
<path d="M152.388 12.5352H156.057L163.695 33.0155L160.708 33.8689L152.388 12.5352ZM172.228 12.5352L160.324 42.4023H156.612L161.775 30.8821L168.601 12.5352H172.228Z" fill="white"/>
</g>
</g>
</svg>
