<svg width="172" height="43" viewBox="0 0 172 43" fill="none" xmlns="http://www.w3.org/2000/svg">
<g id="logo">
<path id="element" d="M34.9924 27.2632C33.1882 27.2632 31.4578 27.9799 30.182 29.2557C28.9062 30.5315 28.1895 32.2619 28.1895 34.0662C28.1895 35.8704 28.9062 37.6008 30.182 38.8766C31.4578 40.1524 33.1882 40.8691 34.9924 40.8691H41.7954V34.0662C41.7954 32.2619 41.0786 30.5315 39.8028 29.2557C38.527 27.9799 36.7967 27.2632 34.9924 27.2632Z" fill="#ECBB3E"/>
<path id="element_2" d="M20.4089 39.1767V40.8179C14.9961 40.8179 9.80504 38.6677 5.97763 34.8403C2.15022 31.0129 0 25.8218 0 20.409C0 14.9962 2.15022 9.80512 5.97763 5.97771C9.80504 2.1503 14.9961 9.77922e-05 20.4089 9.77922e-05C21.7509 -0.00410139 23.0899 0.126944 24.4056 0.391261C20.1233 1.23972 16.226 3.43896 13.2859 6.66599C10.3457 9.89302 8.51787 13.9778 8.07067 18.3203C7.62348 22.6629 8.58052 27.0345 10.8013 30.793C13.022 34.5515 16.3894 37.4988 20.4089 39.2022V39.1767Z" fill="#ECBB3E"/>
<path id="element_3" d="M40.8344 20.4004H36.5826C35.0531 20.402 33.5527 19.9823 32.2462 19.1872C30.9396 18.3922 29.8773 17.2526 29.1758 15.8934C28.1406 13.8922 26.4552 12.3027 24.3967 11.3865C23.213 10.8571 21.9366 10.5662 20.6404 10.5301C19.3443 10.4941 18.0537 10.7137 16.8423 11.1764C15.631 11.6391 14.5227 12.3359 13.5807 13.227C12.6387 14.118 11.8814 15.1859 11.3521 16.3697C10.8227 17.5534 10.5317 18.8298 10.4957 20.126C10.4597 21.4222 10.6793 22.7127 11.142 23.924C11.6047 25.1354 12.3015 26.2437 13.1926 27.1857C14.0836 28.1277 15.1515 28.885 16.3352 29.4143C17.5574 29.9778 18.5915 30.8813 19.3138 32.0168C20.0361 33.1523 20.4162 34.4719 20.4085 35.8176V39.2191C16.389 37.5157 13.0216 34.5684 10.8009 30.8099C8.58013 27.0514 7.62308 22.6799 8.07028 18.3373C8.51747 13.9947 10.3453 9.90993 13.2855 6.68291C16.2256 3.45588 20.1229 1.25667 24.4052 0.408203C29.028 1.33711 33.1881 3.83421 36.1818 7.47714C39.1755 11.1201 40.819 15.6852 40.8344 20.4004Z" fill="#ECBB3E"/>
<g id="element_4">
<path d="M58.9279 34.2954C57.2497 34.2954 55.6994 33.8261 54.2772 32.8874C52.8834 31.9203 51.7598 30.6118 50.9065 28.962C50.0816 27.2837 49.6691 25.3779 49.6691 23.2446C49.6691 21.1112 50.0958 19.2054 50.9491 17.5271C51.8025 15.8489 52.9545 14.5262 54.4052 13.5591C55.8843 12.592 57.5341 12.1084 59.3546 12.1084C61.3458 12.1084 62.8533 12.6204 63.8773 13.6444C64.9298 14.64 65.6409 15.9769 66.0107 17.6552C66.4089 19.3334 66.6081 21.1965 66.6081 23.2446C66.6081 24.3255 66.4943 25.5059 66.2667 26.786C66.0392 28.0375 65.6409 29.2464 65.072 30.4127C64.5316 31.5505 63.7636 32.4892 62.768 33.2287C61.7724 33.9398 60.4924 34.2954 58.9279 34.2954ZM59.7813 31.0527C61.232 31.0527 62.4267 30.6971 63.3653 29.986C64.3325 29.2749 65.0436 28.3362 65.4987 27.17C65.9538 25.9753 66.1814 24.6668 66.1814 23.2446C66.1814 21.6801 65.9396 20.3147 65.456 19.1485C65.0009 17.9538 64.2898 17.0294 63.3227 16.3751C62.384 15.6925 61.2035 15.3511 59.7813 15.3511C57.6479 15.3511 55.9981 16.1049 54.8319 17.6125C53.6656 19.0916 53.0825 20.969 53.0825 23.2446C53.0825 24.7521 53.367 26.1033 53.9359 27.298C54.5332 28.4642 55.3297 29.3887 56.3252 30.0713C57.3492 30.7256 58.5013 31.0527 59.7813 31.0527ZM66.1814 12.5351H69.5948V33.8687H66.4801C66.4801 33.8687 66.4516 33.6127 66.3947 33.1007C66.3663 32.5887 66.3236 31.9914 66.2667 31.3087C66.2098 30.626 66.1814 30.0571 66.1814 29.602V12.5351Z" fill="white"/>
<path d="M79.8066 30.498C78.299 30.498 76.8625 30.1425 75.4972 29.4313C74.1603 28.6918 73.0652 27.6393 72.2118 26.2739C71.3869 24.9086 70.9745 23.273 70.9745 21.3672C70.9745 19.4614 71.3869 17.8258 72.2118 16.4605C73.0367 15.0667 74.1176 14 75.4545 13.2604C76.7914 12.4924 78.2421 12.1084 79.8066 12.1084C80.2902 12.1084 80.7453 12.1511 81.1719 12.2364C81.6271 12.2933 82.0537 12.3928 82.452 12.5351H91.1134V16.2045C89.8903 16.2045 88.6672 15.9769 87.444 15.5218C86.2494 15.0667 85.2253 14.5973 84.372 14.1138L84.2013 13.9431C85.1969 14.4835 86.0076 15.1236 86.6334 15.8631C87.2876 16.6027 87.7712 17.4418 88.084 18.3805C88.4254 19.2907 88.5961 20.2863 88.5961 21.3672C88.5961 23.273 88.1836 24.9086 87.3587 26.2739C86.5622 27.6393 85.4956 28.6918 84.1587 29.4313C82.8217 30.1425 81.3711 30.498 79.8066 30.498ZM86.0787 42.4022V41.4635C86.0787 39.9559 85.6805 38.8608 84.884 38.1781C84.116 37.4955 82.9497 37.1541 81.3853 37.1541H77.1185C76.1799 37.1541 75.355 37.0688 74.6438 36.8981C73.9612 36.7559 73.3923 36.5283 72.9371 36.2154C72.482 35.9025 72.1407 35.5185 71.9131 35.0634C71.6856 34.6083 71.5718 34.0963 71.5718 33.5274C71.5718 32.4465 71.8989 31.6358 72.5531 31.0954C73.2074 30.5265 74.0181 30.1709 74.9852 30.0287C75.9523 29.8864 76.8768 29.8864 77.7586 30.0287L79.8066 30.498C78.2706 30.5833 77.0759 30.7398 76.2225 30.9674C75.3976 31.1949 74.9852 31.6785 74.9852 32.418C74.9852 32.8447 75.1416 33.2003 75.4545 33.4847C75.7959 33.7407 76.2936 33.8687 76.9479 33.8687H81.3853C82.8644 33.8687 84.2155 34.0678 85.4387 34.4661C86.6618 34.8927 87.6432 35.5896 88.3827 36.5568C89.1223 37.5523 89.4921 38.9035 89.4921 40.6102V42.4022H86.0787ZM79.8066 27.298C80.7453 27.298 81.6128 27.0704 82.4093 26.6153C83.2342 26.1602 83.9027 25.4917 84.4147 24.6099C84.9267 23.7281 85.1827 22.6472 85.1827 21.3672C85.1827 20.0872 84.9267 19.0063 84.4147 18.1245C83.9311 17.2143 83.2769 16.5316 82.452 16.0765C81.6271 15.5929 80.7453 15.3511 79.8066 15.3511C78.8679 15.3511 77.9861 15.5929 77.1612 16.0765C76.3363 16.5316 75.6679 17.2 75.1558 18.0818C74.6438 18.9636 74.3878 20.0587 74.3878 21.3672C74.3878 22.6472 74.6438 23.7281 75.1558 24.6099C75.6679 25.4917 76.3363 26.1602 77.1612 26.6153C77.9861 27.0704 78.8679 27.298 79.8066 27.298Z" fill="white"/>
<path d="M101.4 34.2954C99.5794 34.2954 97.8728 33.8545 96.2798 32.9727C94.6869 32.0909 93.3927 30.8251 92.3971 29.1753C91.43 27.4971 90.9464 25.5202 90.9464 23.2446C90.9464 20.969 91.43 19.0063 92.3971 17.3565C93.3927 15.6782 94.6869 14.384 96.2798 13.4738C97.8728 12.5635 99.5794 12.1084 101.4 12.1084C103.22 12.1084 104.913 12.5635 106.477 13.4738C108.07 14.384 109.35 15.6782 110.317 17.3565C111.285 19.0063 111.768 20.969 111.768 23.2446C111.768 25.5202 111.285 27.4971 110.317 29.1753C109.35 30.8251 108.07 32.0909 106.477 32.9727C104.913 33.8545 103.22 34.2954 101.4 34.2954ZM101.4 31.0954C102.595 31.0954 103.718 30.7967 104.771 30.1993C105.823 29.602 106.676 28.7202 107.331 27.554C108.013 26.3593 108.355 24.9228 108.355 23.2446C108.355 21.5663 108.013 20.1441 107.331 18.9778C106.676 17.7832 105.823 16.8729 104.771 16.2471C103.718 15.6213 102.595 15.3084 101.4 15.3084C100.205 15.3084 99.0674 15.6213 97.9865 16.2471C96.9341 16.8445 96.0665 17.7405 95.3838 18.9352C94.7011 20.1014 94.3598 21.5379 94.3598 23.2446C94.3598 24.9228 94.6869 26.3593 95.3412 27.554C96.0238 28.7202 96.9056 29.602 97.9865 30.1993C99.0674 30.7967 100.205 31.0954 101.4 31.0954Z" fill="white"/>
<path d="M113.113 12.5351H116.526V33.8687H113.113V12.5351ZM123.865 12.1084C125.003 12.1084 126.027 12.2791 126.937 12.6204C127.848 12.9617 128.616 13.4595 129.241 14.1138C129.867 14.768 130.351 15.5645 130.692 16.5031C131.033 17.4134 131.204 18.4516 131.204 19.6178V33.8687H127.791V20.4712C127.791 18.8214 127.407 17.584 126.639 16.7591C125.871 15.9342 124.719 15.5218 123.183 15.5218C122.016 15.5218 120.935 15.8205 119.94 16.4178C118.944 17.0151 118.119 17.84 117.465 18.8925C116.839 19.9165 116.455 21.1112 116.313 22.4766L116.27 20.0019C116.413 18.8072 116.697 17.7263 117.124 16.7591C117.579 15.792 118.134 14.9671 118.788 14.2844C119.471 13.5733 120.239 13.0329 121.092 12.6631C121.974 12.2933 122.898 12.1084 123.865 12.1084Z" fill="white"/>
<path d="M152.696 25.8473C152.497 27.6109 151.928 29.1327 150.989 30.4127C150.079 31.6643 148.927 32.6314 147.533 33.3141C146.139 33.9683 144.632 34.2954 143.011 34.2954C141.19 34.2954 139.483 33.8545 137.89 32.9727C136.298 32.0909 135.003 30.8251 134.008 29.1753C133.041 27.4971 132.557 25.5202 132.557 23.2446C132.557 20.969 133.041 19.0063 134.008 17.3565C135.003 15.6782 136.298 14.384 137.89 13.4738C139.483 12.5635 141.19 12.1084 143.011 12.1084C144.632 12.1084 146.125 12.4497 147.491 13.1324C148.884 13.8151 150.036 14.7822 150.947 16.0338C151.885 17.2854 152.468 18.7787 152.696 20.5139H149.581C149.098 18.8925 148.259 17.6267 147.064 16.7165C145.869 15.7778 144.518 15.3084 143.011 15.3084C141.787 15.3084 140.635 15.6213 139.554 16.2471C138.474 16.8729 137.606 17.7832 136.952 18.9778C136.298 20.1441 135.97 21.5663 135.97 23.2446C135.97 24.8944 136.298 26.3166 136.952 27.5113C137.606 28.6775 138.459 29.5736 139.512 30.1993C140.593 30.7967 141.759 31.0954 143.011 31.0954C144.746 31.0954 146.154 30.6402 147.235 29.73C148.344 28.7913 149.14 27.4971 149.624 25.8473H152.696Z" fill="white"/>
<path d="M152.137 12.5351H155.806L163.444 33.0154L160.457 33.8687L152.137 12.5351ZM171.977 12.5351L160.073 42.4022H156.361L161.524 30.882L168.351 12.5351H171.977Z" fill="white"/>
</g>
</g>
</svg>
