<svg width="96" height="50" viewBox="0 0 96 50" fill="none" xmlns="http://www.w3.org/2000/svg">
<rect width="96" height="50" fill="#424242"/>
<g clip-path="url(#clip0_0_1)">
<rect width="1920" height="11291" transform="translate(-1454 -8481)" fill="white"/>
<rect x="-1454" y="-712" width="1920" height="1073" fill="#2053C4"/>
<rect x="-262.538" y="-532" width="630" height="540" rx="50" transform="rotate(18.5131 -262.538 -532)" fill="#E5F8C6"/>
<path d="M112.094 76.6364C112.725 76.4493 113.403 76.2163 114.053 75.9741C119.026 74.16 123.175 71.7326 124.406 70.0296C124.452 69.9837 124.554 69.8184 124.6 69.6806C124.665 69.4876 124.614 69.3174 124.434 69.2572C122.637 68.6555 114.921 72.4634 111.969 76.6407L111.965 76.6545L112.094 76.6364ZM97.8146 71.1193C104.655 68.8266 112.413 64.7567 113.843 62.507C113.884 62.4289 113.939 62.3555 113.962 62.2866C114.004 62.1166 113.967 61.951 113.76 61.8815C112.032 61.3029 101.564 65.9829 97.8146 71.1193ZM63.0377 63.5055C61.9324 62.0318 59.9884 60.3998 57.9978 59.7333C56.0625 59.0852 54.5784 59.4313 54.26 60.3823C53.8908 61.485 55.236 62.4719 56.9086 63.032C58.9406 63.7124 60.9776 63.7813 63.0377 63.5055ZM84.1206 56.1874C88.4526 56.2431 93.048 54.8695 96.7402 53.0709C100.147 51.3912 103.213 49.0762 103.711 47.5877C103.826 47.2431 103.647 46.9531 103.343 46.8513C102.154 46.4532 99.3745 47.2699 95.3365 49.2746C92.1789 50.8537 88.3481 53.1578 84.1206 56.1874ZM139.289 85.1756C134.813 87.3863 121.248 93.0523 115.88 99.8541L112.733 97.8194C114.924 94.9967 119.977 91.1552 125.038 88.5735C124.135 88.6082 123.254 88.4362 122.591 88.214C121.568 87.8714 120.882 87.3044 120.592 86.5635C120.385 86.0343 120.399 85.4412 120.616 84.7935C120.662 84.6556 120.722 84.5224 120.791 84.3617C116.799 85.263 113.841 85.284 111.228 84.4091C109.196 83.7287 107.777 82.2727 107.506 80.4652C103.672 80.9899 100.252 80.7339 97.6122 79.8498C95.1516 79.0259 93.5118 77.4038 93.1902 75.3341C89.2357 76.0793 86.125 76.0033 83.8718 75.2488C82.5724 74.8137 81.6695 74.1129 81.2321 73.2153C80.9144 72.5571 80.8779 71.7938 81.1087 71.0128C78.5138 71.692 74.8728 72.2355 71.6796 71.1663C68.4173 70.0739 66.5932 68.2215 65.276 66.5542C62.0682 67.1355 58.8377 66.8662 55.686 65.8108C53.3084 65.0147 49.784 62.7309 50.9239 59.3266C51.847 56.57 55.3453 55.6721 59.202 56.9636C62.4781 58.0606 65.1683 60.4942 66.6697 62.5757C69.0481 61.7167 71.7263 60.2836 75.0317 58.1256C74.511 57.9819 74.0087 57.829 73.5111 57.6624C69.06 56.1719 65.7799 53.6174 64.514 50.6491C63.8373 49.0429 63.7966 47.4199 64.3182 45.8624C66.3857 39.6878 75.8158 37.5113 82.8938 39.0996C83.0084 40.2722 83.1462 41.1921 83.2471 42.2682C76.2244 40.7903 69.2507 42.885 67.9446 46.7855C67.0862 49.3491 69.1122 52.8939 75.2498 54.949C76.3004 55.3008 77.3833 55.5561 78.4846 55.7563C86.3955 50.1281 98.5663 41.3279 105.699 43.7163C107.814 44.4245 108.491 46.0766 107.918 47.7857C106.737 51.314 102.427 54.086 99.79 55.395C95.6367 57.4684 88.4599 60.2155 80.0914 59.13C75.6149 62.3522 72.1576 64.3214 68.9633 65.505C70.2116 66.8274 71.4646 67.8141 73.1787 68.388C77.4087 69.8044 82.8064 67.32 87.1072 65.1274L87.2548 65.0542L89.106 67.8353L88.9493 67.9361C86.9809 69.0857 85.1092 70.3597 84.7908 71.3107C84.5462 72.0412 85.1221 72.3873 85.6474 72.5632C87.2647 73.1047 90.1175 72.8951 93.6526 72.0708L93.6618 72.0433C96.4027 64.9138 110.02 57.1651 116.033 59.1786C117.733 59.7479 118.42 60.9127 117.926 62.3874C116.712 66.0123 107.829 71.6981 96.6976 74.5926C96.8261 75.7699 97.7566 76.618 99.5951 77.2336C101.033 77.715 104.07 78.0115 107.996 77.395C109.639 73.7757 113.115 70.464 116.785 68.5044C120.458 66.5311 124.123 65.6887 126.749 66.5682C128.366 67.1097 129.02 68.325 128.554 69.7171C127.493 72.8871 121.993 77.054 111.221 79.7471C111.354 80.6347 111.967 81.3763 113.142 81.7698C115.782 82.6539 121.382 81.4021 126.176 79.16L128.101 82.0425C126.529 83.0182 124.916 84.1181 124.671 84.9865C124.592 85.2668 124.712 85.5061 125.155 85.6542C127.822 86.5476 133.215 84.4447 137.41 82.3852L139.289 85.1756ZM93.312 61.7023C94.4869 62.0957 95.1223 63.3661 94.7254 64.5514C94.3285 65.7367 93.0562 66.3683 91.8813 65.9749C90.6925 65.5768 90.0571 64.3064 90.454 63.1211C90.8463 61.9496 92.1232 61.3042 93.312 61.7023Z" fill="#465F1C"/>
<rect x="-379.243" y="-464.743" width="630" height="540" rx="50" transform="rotate(7.28066 -379.243 -464.743)" fill="#B9D5FF"/>
<path fill-rule="evenodd" clip-rule="evenodd" d="M101.211 40.5555C98.039 40.1503 95.8095 41.3823 94.5442 42.2759L94.3805 40.2105L87.2608 39.3009L82.4273 77.1336L90.7376 76.4475L91.9431 67.2693C93.0003 68.2617 94.5622 69.6814 97.41 70.0453C103.203 70.7853 109.075 66.787 110.389 56.5014C111.559 47.0878 106.874 41.279 101.211 40.5555ZM96.4126 62.6631C94.5033 62.4191 93.4576 61.593 92.7887 60.6502L94.2943 48.6084C95.2559 47.7749 96.5039 47.2749 98.3485 47.5105C101.293 47.8868 102.909 51.4568 102.366 55.7073C101.811 60.0551 99.39 63.0435 96.4126 62.6631Z" fill="#223C63"/>
<path fill-rule="evenodd" clip-rule="evenodd" d="M76.4395 35.4447L84.7863 34.7304L85.6278 28.1437L77.2852 28.8256L76.4395 35.4447Z" fill="#223C63"/>
<path d="M84.2469 38.9484L76.124 37.9106L72.4968 66.3014L80.6197 67.3392L84.2469 38.9484Z" fill="#223C63"/>
<path fill-rule="evenodd" clip-rule="evenodd" d="M67.1115 39.1996L66.9005 36.7324L59.9103 35.8393L56.2831 64.23L64.3736 65.2637L66.8318 46.0229C69.0604 43.7684 72.2386 44.6361 73.1962 45.1212L74.1496 37.6585C73.1638 37.1368 69.4686 35.9393 67.1115 39.1996Z" fill="#223C63"/>
<path fill-rule="evenodd" clip-rule="evenodd" d="M52.1367 27.6902L44.0248 28.3686L40.672 54.3541C40.0585 59.1562 43.1989 63.1519 47.9885 63.7638C50.6422 64.1028 52.6461 63.8642 53.7886 63.4166L54.6301 56.8299C53.5407 57.1194 48.2368 57.9587 48.8503 53.1566L50.3219 41.6381L56.4707 42.4237L57.3537 35.5126L51.2048 34.727L52.1367 27.6902Z" fill="#223C63"/>
<path fill-rule="evenodd" clip-rule="evenodd" d="M28.3084 40.1779C28.4701 38.9125 29.5678 38.5581 31.283 38.7773C33.7425 39.0915 36.754 40.2347 39.0435 41.8792L40.0177 34.2543C37.4684 32.8404 34.8686 32.0795 32.1826 31.7364C25.613 30.897 20.8047 33.7782 20.071 39.5212C18.9269 48.4765 31.4069 48.62 30.9136 52.4811C30.7229 53.9737 29.3663 54.295 27.554 54.0634C24.8679 53.7203 21.5785 52.1788 19.0507 50.339L18.0641 58.0613C20.908 59.7436 23.8796 60.6839 26.6627 61.0394C33.3941 61.8994 38.4488 59.1487 39.1908 53.3408C40.3938 43.6676 27.8441 43.8119 28.3084 40.1779Z" fill="#223C63"/>
<rect x="-484" y="-429" width="630" height="540" rx="50" fill="#FFEFD7"/>
<path d="M90.7206 10.304C93.3579 10.304 95.4959 8.16604 95.4959 5.52872C95.4959 2.89139 93.3579 0.753418 90.7206 0.753418C88.0833 0.753418 85.9453 2.89139 85.9453 5.52872C85.9453 8.16604 88.0833 10.304 90.7206 10.304Z" fill="#9FD4D0"/>
<path d="M20.2498 36.8981C20.2498 38.2028 19.5714 39.1945 18.4752 39.7164C17.4835 40.1338 16.3353 40.3947 14.8222 40.3947C8.08941 40.3947 4.48834 37.0021 4.48834 30.6872V19.884H3.02722C1.30466 19.884 0 18.6314 0 16.9093C0 15.1873 1.30466 13.9346 3.02722 13.9346H4.48834V10.3855C4.48834 8.35001 5.94997 6.83691 8.03742 6.83691C10.0204 6.83691 11.534 8.35001 11.534 10.3855V13.9346H16.2833C18.0053 13.9346 19.258 15.1873 19.258 16.9093C19.258 18.6314 18.0053 19.884 16.2833 19.884H11.534V30.0609C11.534 32.9317 12.8912 34.0799 16.1788 34.0799C16.5962 34.0799 16.9096 34.0274 17.1706 34.0274C19.0496 34.0274 20.2498 35.1756 20.2498 36.8981Z" fill="#280C0C"/>
<path d="M22.5547 36.7938V16.9094C22.5547 14.874 24.0683 13.3604 26.1038 13.3604C28.0868 13.3604 29.6004 14.874 29.6004 16.9094V36.7938C29.6004 38.8293 28.0868 40.3949 26.0513 40.3949C24.0683 40.3949 22.5547 38.8293 22.5547 36.7938Z" fill="#280C0C"/>
<path d="M59.1934 3.60107V36.846C59.1934 38.8814 57.7322 40.395 55.7493 40.395C53.9222 40.395 52.4091 38.9339 52.3046 37.1069C50.5301 39.1949 47.7638 40.395 44.4237 40.395C37.1696 40.395 31.8984 34.7065 31.8984 26.878C31.8984 19.0496 37.1696 13.3605 44.4237 13.3605C47.6599 13.3605 50.3737 14.5087 52.1477 16.4397V3.60107C52.1477 1.5661 53.6613 0 55.6968 0C57.6803 -6.85178e-08 59.1934 1.51361 59.1934 3.60107ZM52.2522 26.878C52.2522 22.6506 49.5909 19.7279 45.7289 19.7279C41.8663 19.7279 39.0486 22.7551 39.0486 26.8256C39.0486 31.001 41.8144 33.9757 45.7289 33.9757C49.6428 33.9757 52.2522 31.1055 52.2522 26.878Z" fill="#280C0C"/>
<path d="M84.7696 24.425V36.8458C84.7696 38.8812 83.308 40.3424 81.377 40.3424C79.655 40.3424 78.2978 39.1947 77.9849 37.6286C76.1059 39.4031 73.4966 40.3949 70.4174 40.3949C65.0942 40.3949 61.4932 37.2632 61.4932 32.6709C61.4932 28.0261 65.1982 25.1553 71.2526 25.1553H77.724V24.0071C77.724 21.1368 76.0019 19.4668 72.8702 19.4668C71.0437 19.4668 69.4256 20.0931 67.9125 21.3978C67.0772 22.0241 66.5034 22.2331 65.8245 22.2331C64.1025 22.2331 62.7978 20.9279 62.7978 19.3623C62.7978 18.3706 63.3197 17.4313 64.2589 16.544C66.4509 14.5086 69.8435 13.3604 73.601 13.3604C80.6987 13.3604 84.7696 17.3793 84.7696 24.425ZM77.724 30.1135V29.8001H72.1919C69.8435 29.8001 68.5908 30.6874 68.5908 32.4099C68.5908 34.132 70 35.2282 72.2964 35.2282C75.3756 35.2282 77.724 33.0363 77.724 30.1135Z" fill="#280C0C"/>
<path d="M81.5921 49.319C80.2869 48.7972 79.4521 47.8059 79.4521 46.4488C79.4521 44.7267 80.7048 43.4216 82.4269 43.4216C82.6878 43.4216 82.8443 43.4741 83.1052 43.4741C85.715 43.4741 87.0717 42.4823 87.0717 38.8293V16.9094C87.0717 14.874 88.5853 13.3604 90.6208 13.3604C92.6037 13.3604 94.1173 14.874 94.1173 16.9094V40.0814C94.1173 46.4488 90.3598 49.7889 84.4624 49.7889C83.2622 49.7889 82.3749 49.58 81.5921 49.319Z" fill="#280C0C"/>
</g>
<defs>
<clipPath id="clip0_0_1">
<rect width="1920" height="11291" fill="white" transform="translate(-1454 -8481)"/>
</clipPath>
</defs>
</svg>
