<svg width="201" height="203" viewBox="0 0 201 203" fill="none" xmlns="http://www.w3.org/2000/svg">
<g id="graphic element">
<path id="element" d="M73.8666 160.683C73.8666 161.366 73.3116 161.919 72.6269 161.919C71.9422 161.919 71.3872 161.366 71.3872 160.683C71.3872 160.001 71.9422 159.448 72.6269 159.448C73.3116 159.448 73.8666 160.001 73.8666 160.683Z" fill="#0095D5"/>
<path id="element_2" d="M65.0871 151.933C65.0871 152.616 64.532 153.169 63.8474 153.169C63.1627 153.169 62.6077 152.616 62.6077 151.933C62.6077 151.251 63.1627 150.698 63.8474 150.698C64.532 150.698 65.0871 151.251 65.0871 151.933Z" fill="#0095D5"/>
<path id="element_3" d="M56.2875 143.163C56.2875 143.846 55.7325 144.399 55.0478 144.399C54.3631 144.399 53.8081 143.846 53.8081 143.163C53.8081 142.481 54.3631 141.928 55.0478 141.928C55.7325 141.928 56.2875 142.481 56.2875 143.163Z" fill="#0095D5"/>
<path id="element_4" d="M88.2958 160.845C88.5306 160.62 88.8438 160.494 89.1697 160.494C89.4956 160.494 89.8088 160.62 90.0435 160.845C90.2756 161.08 90.4057 161.397 90.4057 161.726C90.4057 162.056 90.2756 162.372 90.0435 162.607C89.9299 162.724 89.794 162.816 89.6439 162.879C89.4938 162.943 89.3326 162.975 89.1697 162.975C89.0067 162.975 88.8455 162.943 88.6954 162.879C88.5453 162.816 88.4094 162.724 88.2958 162.607C88.0637 162.372 87.9336 162.056 87.9336 161.726C87.9336 161.397 88.0637 161.08 88.2958 160.845Z" fill="#0095D5"/>
<path id="element_5" d="M79.4962 152.096C79.6692 151.922 79.8901 151.804 80.1308 151.755C80.3715 151.707 80.6212 151.731 80.8481 151.824C81.0751 151.918 81.2691 152.076 81.4057 152.279C81.5423 152.483 81.6151 152.722 81.6151 152.967C81.6151 153.211 81.5423 153.45 81.4057 153.654C81.2691 153.857 81.0751 154.015 80.8481 154.109C80.6212 154.202 80.3715 154.226 80.1308 154.178C79.8901 154.129 79.6692 154.011 79.4962 153.837C79.3794 153.724 79.2866 153.589 79.2232 153.439C79.1598 153.29 79.1272 153.129 79.1272 152.967C79.1272 152.804 79.1598 152.643 79.2232 152.494C79.2866 152.344 79.3794 152.209 79.4962 152.096Z" fill="#0095D5"/>
<path id="element_6" d="M70.7167 143.325C70.9515 143.1 71.2647 142.974 71.5906 142.974C71.9165 142.974 72.2297 143.1 72.4644 143.325C72.6965 143.56 72.8266 143.877 72.8266 144.206C72.8266 144.536 72.6965 144.852 72.4644 145.087C72.3508 145.204 72.2149 145.296 72.0648 145.359C71.9147 145.423 71.7535 145.455 71.5906 145.455C71.4276 145.455 71.2663 145.423 71.1162 145.359C70.9661 145.296 70.8303 145.204 70.7167 145.087C70.4846 144.852 70.3545 144.536 70.3545 144.206C70.3545 143.877 70.4846 143.56 70.7167 143.325Z" fill="#0095D5"/>
<path id="element_7" d="M61.9168 134.576C62.0899 134.402 62.3108 134.284 62.5515 134.235C62.7922 134.187 63.0418 134.211 63.2687 134.304C63.4957 134.398 63.6898 134.556 63.8264 134.759C63.9629 134.963 64.0358 135.202 64.0358 135.446C64.0358 135.691 63.9629 135.93 63.8264 136.134C63.6898 136.337 63.4957 136.495 63.2687 136.589C63.0418 136.682 62.7922 136.706 62.5515 136.658C62.3108 136.609 62.0899 136.491 61.9168 136.317C61.8 136.204 61.7072 136.069 61.6439 135.919C61.5805 135.77 61.5479 135.609 61.5479 135.446C61.5479 135.284 61.5805 135.123 61.6439 134.974C61.7072 134.824 61.8 134.689 61.9168 134.576Z" fill="#0095D5"/>
<path id="element_8" d="M98.1525 154.02C98.1525 154.702 97.5975 155.255 96.9128 155.255C96.2281 155.255 95.6731 154.702 95.6731 154.02C95.6731 153.337 96.2281 152.784 96.9128 152.784C97.5975 152.784 98.1525 153.337 98.1525 154.02Z" fill="#0095D5"/>
<path id="element_9" d="M87.2391 144.46C87.4121 144.286 87.633 144.168 87.8737 144.12C88.1144 144.071 88.3641 144.095 88.5911 144.189C88.818 144.282 89.0121 144.44 89.1486 144.644C89.2852 144.847 89.3581 145.086 89.3581 145.331C89.3581 145.575 89.2852 145.815 89.1486 146.018C89.0121 146.221 88.818 146.38 88.5911 146.473C88.3641 146.566 88.1144 146.59 87.8737 146.542C87.633 146.494 87.4121 146.375 87.2391 146.202C87.1223 146.088 87.0296 145.953 86.9662 145.803C86.9028 145.654 86.8701 145.493 86.8701 145.331C86.8701 145.168 86.9028 145.008 86.9662 144.858C87.0296 144.708 87.1223 144.573 87.2391 144.46Z" fill="#0095D5"/>
<path id="element_10" d="M105.895 146.303C105.895 146.985 105.34 147.538 104.656 147.538C103.971 147.538 103.416 146.985 103.416 146.303C103.416 145.621 103.971 145.067 104.656 145.067C105.34 145.067 105.895 145.621 105.895 146.303Z" fill="#0095D5"/>
<path id="element_11" d="M94.982 136.661C95.1551 136.488 95.376 136.369 95.6167 136.321C95.8573 136.273 96.107 136.297 96.334 136.39C96.561 136.484 96.755 136.642 96.8915 136.845C97.0281 137.049 97.101 137.288 97.101 137.532C97.101 137.777 97.0281 138.016 96.8915 138.22C96.755 138.423 96.561 138.581 96.334 138.675C96.107 138.768 95.8573 138.792 95.6167 138.744C95.376 138.695 95.1551 138.577 94.982 138.403C94.8652 138.29 94.7725 138.155 94.7091 138.005C94.6457 137.856 94.613 137.695 94.613 137.532C94.613 137.37 94.6457 137.209 94.7091 137.06C94.7725 136.91 94.8652 136.775 94.982 136.661Z" fill="#0095D5"/>
<path id="element_12" d="M65.3351 123.739L80.1079 109.016L94.8807 123.739L80.1079 138.462L65.3351 123.739Z" fill="#B4E8F8"/>
<path id="element_13" d="M120.871 39.9297L160.935 0L201 39.9298L160.935 79.8595L120.871 39.9297Z" fill="#FFDA2B"/>
<path id="element_14" d="M147.168 39.9299L160.935 26.2095L174.702 39.93L160.935 53.6504L147.168 39.9299Z" fill="#0099FF"/>
<path id="element_15" d="M120.858 39.9463L80.7937 79.876L40.7289 39.9462L80.7937 0.0164979L120.858 39.9463Z" fill="#0099FF"/>
<path id="element_16" d="M80.8189 79.8676L40.7542 119.797L0.689374 79.8676L40.7541 39.9379L80.8189 79.8676Z" fill="#FFA1AA"/>
<path id="element_17" d="M160.935 79.8715L120.87 119.801L80.8056 79.8715L120.87 39.9418L160.935 79.8715Z" fill="#D6AEFF"/>
<path id="element_18" d="M99.3313 61.4165L99.4939 61.5988C105.207 67.2697 112.942 70.4537 121.006 70.4537C129.069 70.4537 136.804 67.2697 142.517 61.5988L160.91 79.929L157.475 83.352C146.622 92.4174 132.757 97.1043 118.61 96.4895C104.464 95.8747 91.0603 90.0028 81.0407 80.0303C80.9918 79.9713 80.9374 79.917 80.8782 79.8682L99.3313 61.4165Z" fill="#B4E8F8"/>
<path id="element_19" d="M80.7966 0.00536759L40.7403 39.947L0.663574 0.00537109L80.7966 0.00536759Z" fill="#D6AEFF"/>
<path id="element_20" d="M160.95 0.00536759L120.874 39.947L80.7969 0.00537109L160.95 0.00536759Z" fill="#2053C4"/>
</g>
</svg>
