<svg width="21" height="20" viewBox="0 0 21 20" fill="none" xmlns="http://www.w3.org/2000/svg">
<g id="Group 1000003087">
<path id="Vector" d="M15.7908 9.88714H11.8081C11.3599 9.88714 10.93 9.70907 10.613 9.39212C10.2961 9.07516 10.118 8.64528 10.118 8.19704V4.20334C10.1192 3.8146 10.0309 3.4308 9.86006 3.08162C9.6892 2.73244 9.44034 2.42723 9.1327 2.18958C8.84119 1.95873 8.50051 1.79797 8.13698 1.71972C7.77346 1.64148 7.39681 1.64784 7.03613 1.73833C4.98744 2.24689 3.17369 3.43946 1.89483 5.11883C0.615966 6.7982 -0.0514021 8.86376 0.00309124 10.9739C0.0575846 13.0841 0.830675 15.1125 2.19451 16.7236C3.55835 18.3347 5.43124 19.4321 7.50344 19.8342C9.83333 20.2802 12.2456 19.8185 14.2461 18.5438C16.2467 17.269 17.6842 15.2776 18.2643 12.9775C18.3551 12.6163 18.3617 12.2392 18.2836 11.8751C18.2055 11.511 18.0448 11.1697 17.8139 10.8775C17.5734 10.5703 17.2665 10.3216 16.9161 10.1501C16.5657 9.97853 16.181 9.88863 15.7908 9.88714ZM16.6258 12.5643C16.3022 13.8672 15.6384 15.0608 14.7021 16.0231C13.7659 16.9853 12.5909 17.6815 11.2973 18.0407C10.0037 18.3998 8.63793 18.4088 7.33967 18.0669C6.04142 17.725 4.85727 17.0444 3.90836 16.0947C2.95944 15.145 2.27981 13.9603 1.93898 12.6618C1.59815 11.3632 1.60835 9.99746 1.96854 8.70416C2.32873 7.41085 3.02598 6.23643 3.98897 5.30101C4.95196 4.36558 6.14614 3.70273 7.44936 3.38026C7.56085 3.3524 7.67732 3.35104 7.78943 3.37628C7.90154 3.40152 8.00618 3.45266 8.09498 3.52561C8.19984 3.60555 8.28488 3.70858 8.3435 3.8267C8.40212 3.94482 8.43274 4.07485 8.433 4.20671V8.19704C8.433 9.09352 8.78913 9.95329 9.42304 10.5872C10.0569 11.2211 10.9167 11.5772 11.8132 11.5772H15.7951C15.9281 11.5778 16.0592 11.6085 16.1787 11.667C16.2981 11.7256 16.4027 11.8104 16.4846 11.9153C16.5565 12.0053 16.6065 12.1107 16.6308 12.2233C16.6552 12.3359 16.654 12.4526 16.6258 12.5643Z" fill="black"/>
<path id="Vector_2" d="M19.9637 6.0388C19.5747 4.60853 18.8189 3.30464 17.7712 2.25617C16.7234 1.2077 15.4201 0.450987 13.9901 0.0609198C13.8402 0.020619 13.6856 0.000163238 13.5304 7.62737e-05C13.3071 -0.00204512 13.0856 0.0401045 12.8787 0.12409C12.6718 0.208075 12.4835 0.33223 12.3249 0.489382C12.1663 0.646534 12.0403 0.833566 11.9544 1.03967C11.8685 1.24578 11.8242 1.46687 11.8242 1.69017V5.66191C11.8242 6.33427 12.0913 6.97909 12.5667 7.45453C13.0422 7.92996 13.687 8.19705 14.3594 8.19705H18.3472C18.608 8.19455 18.8647 8.13193 19.0975 8.01408C19.3302 7.89623 19.5326 7.72632 19.689 7.51754C19.8453 7.30876 19.9515 7.06674 19.9991 6.81028C20.0468 6.55381 20.0347 6.28982 19.9637 6.0388ZM17.8528 6.50696H14.356C14.1319 6.50696 13.9169 6.41792 13.7584 6.25945C13.6 6.10097 13.5109 5.88603 13.5109 5.66191L13.5042 1.69609C13.5104 1.69162 13.5177 1.68898 13.5253 1.68848H13.5473C14.6983 2.00207 15.747 2.61205 16.5886 3.45755C17.4303 4.30305 18.0355 5.35449 18.3438 6.50696H17.8528Z" fill="black"/>
</g>
</svg>
