<svg width="35" height="35" viewBox="0 0 35 35" fill="none" xmlns="http://www.w3.org/2000/svg">
<path id="menu icon" d="M29.7874 -0.000488281C32.6533 -0.000488281 35.0001 2.34668 35.0001 5.2122C35.0001 8.07806 32.653 10.4249 29.7874 10.4249C26.9216 10.4249 24.5748 8.07773 24.5748 5.2122C24.5748 2.34635 26.9219 -0.000488281 29.7874 -0.000488281ZM17.5001 -0.000488281C20.3659 -0.000488281 22.7128 2.34668 22.7128 5.2122C22.7128 8.07806 20.3656 10.4249 17.5001 10.4249C14.6342 10.4249 12.2874 8.07773 12.2874 5.2122C12.2874 2.34635 14.6345 -0.000488281 17.5001 -0.000488281ZM5.21269 -0.000488281C8.07855 -0.000488281 10.4254 2.34668 10.4254 5.2122C10.4254 8.07806 8.07822 10.4249 5.21269 10.4249C2.34684 10.4249 0 8.07773 0 5.2122C0 2.34635 2.34717 -0.000488281 5.21269 -0.000488281ZM29.7874 2.23371C28.1291 2.23371 26.8086 3.55414 26.8086 5.21254C26.8086 6.87093 28.129 8.19136 29.7874 8.19136C31.4458 8.19136 32.7663 6.87093 32.7663 5.21254C32.7663 3.55414 31.4458 2.23371 29.7874 2.23371ZM17.5001 2.23371C15.8417 2.23371 14.5212 3.55414 14.5212 5.21254C14.5212 6.87093 15.8417 8.19136 17.5001 8.19136C19.1585 8.19136 20.4789 6.87093 20.4789 5.21254C20.4789 3.55414 19.1585 2.23371 17.5001 2.23371ZM5.21269 2.23371C3.55436 2.23371 2.23387 3.55414 2.23387 5.21254C2.23387 6.87093 3.5543 8.19136 5.21269 8.19136C6.87102 8.19136 8.19152 6.87093 8.19152 5.21254C8.19152 3.55414 6.87109 2.23371 5.21269 2.23371ZM29.7874 12.287C32.6533 12.287 35.0001 14.6342 35.0001 17.4997C35.0001 20.3656 32.653 22.7124 29.7874 22.7124C26.9216 22.7124 24.5748 20.3652 24.5748 17.4997C24.5748 14.6339 26.9219 12.287 29.7874 12.287ZM17.5001 12.287C20.3659 12.287 22.7128 14.6342 22.7128 17.4997C22.7128 20.3656 20.3656 22.7124 17.5001 22.7124C14.6342 22.7124 12.2874 20.3652 12.2874 17.4997C12.2874 14.6339 14.6345 12.287 17.5001 12.287ZM5.21269 12.287C8.07855 12.287 10.4254 14.6342 10.4254 17.4997C10.4254 20.3656 8.07822 22.7124 5.21269 22.7124C2.34684 22.7124 0 20.3652 0 17.4997C0 14.6339 2.34717 12.287 5.21269 12.287ZM29.7874 14.5212C28.1291 14.5212 26.8086 15.8417 26.8086 17.5C26.8086 19.1584 28.129 20.4789 29.7874 20.4789C31.4458 20.4789 32.7663 19.1584 32.7663 17.5C32.7663 15.8417 31.4458 14.5212 29.7874 14.5212ZM17.5001 14.5212C15.8417 14.5212 14.5212 15.8417 14.5212 17.5C14.5212 19.1584 15.8417 20.4789 17.5001 20.4789C19.1585 20.4789 20.4789 19.1584 20.4789 17.5C20.4789 15.8417 19.1585 14.5212 17.5001 14.5212ZM5.21269 14.5212C3.55436 14.5212 2.23387 15.8417 2.23387 17.5C2.23387 19.1584 3.5543 20.4789 5.21269 20.4789C6.87102 20.4789 8.19152 19.1584 8.19152 17.5C8.19152 15.8417 6.87109 14.5212 5.21269 14.5212ZM29.7874 24.5745C32.6533 24.5745 35.0001 26.9217 35.0001 29.7872C35.0001 32.6531 32.653 34.9999 29.7874 34.9999C26.9216 34.9999 24.5748 32.6527 24.5748 29.7872C24.5748 26.9214 26.9219 24.5745 29.7874 24.5745ZM17.5001 24.5745C20.3659 24.5745 22.7128 26.9217 22.7128 29.7872C22.7128 32.6531 20.3656 34.9999 17.5001 34.9999C14.6342 34.9999 12.2874 32.6527 12.2874 29.7872C12.2874 26.9214 14.6345 24.5745 17.5001 24.5745ZM5.21269 24.5745C8.07855 24.5745 10.4254 26.9217 10.4254 29.7872C10.4254 32.6531 8.07822 34.9999 5.21269 34.9999C2.34684 34.9999 0 32.6527 0 29.7872C0 26.9214 2.34717 24.5745 5.21269 24.5745ZM29.7874 26.8087C28.1291 26.8087 26.8086 28.1292 26.8086 29.7876C26.8086 31.4459 28.129 32.7664 29.7874 32.7664C31.4458 32.7664 32.7663 31.446 32.7663 29.7876C32.7663 28.1292 31.4458 26.8087 29.7874 26.8087ZM17.5001 26.8087C15.8417 26.8087 14.5212 28.1292 14.5212 29.7876C14.5212 31.4459 15.8417 32.7664 17.5001 32.7664C19.1585 32.7664 20.4789 31.446 20.4789 29.7876C20.4789 28.1292 19.1585 26.8087 17.5001 26.8087ZM5.21269 26.8087C3.55436 26.8087 2.23387 28.1292 2.23387 29.7876C2.23387 31.4459 3.5543 32.7664 5.21269 32.7664C6.87102 32.7664 8.19152 31.446 8.19152 29.7876C8.19152 28.1292 6.87109 26.8087 5.21269 26.8087Z" fill="white"/>
</svg>
