<svg width="216" height="36" viewBox="0 0 216 36" fill="none" xmlns="http://www.w3.org/2000/svg">
<g id="slider">
<path id="icon" d="M216 18C216 21.5601 214.944 25.0402 212.966 28.0003C210.989 30.9603 208.177 33.2675 204.888 34.6298C201.599 35.9922 197.98 36.3487 194.488 35.6541C190.997 34.9596 187.789 33.2453 185.272 30.7279C182.755 28.2106 181.04 25.0033 180.346 21.5116C179.651 18.02 180.008 14.4008 181.37 11.1117C182.733 7.82263 185.04 5.01141 188 3.03355C190.96 1.05568 194.44 -4.24533e-08 198 0V18H216Z" fill="#D6AEFF"/>
<path id="icon_2" d="M156 18C156 14.4399 154.944 10.9598 152.966 7.99974C150.989 5.03965 148.177 2.73255 144.888 1.37017C141.599 0.007791 137.98 -0.348669 134.488 0.345865C130.997 1.0404 127.789 2.75473 125.272 5.27208C122.755 7.78942 121.04 10.9967 120.346 14.4884C119.651 17.98 120.008 21.5992 121.37 24.8883C122.733 28.1774 125.04 30.9886 128 32.9665C130.96 34.9443 134.44 36 138 36V18H156Z" fill="#FFDA2B"/>
<path id="icon_3" d="M96 18C96 21.5601 94.9443 25.0402 92.9665 28.0003C90.9886 30.9603 88.1774 33.2675 84.8883 34.6298C81.5992 35.9922 77.98 36.3487 74.4884 35.6541C70.9967 34.9596 67.7894 33.2453 65.2721 30.7279C62.7547 28.2106 61.0404 25.0033 60.3459 21.5116C59.6513 18.02 60.0078 14.4008 61.3702 11.1117C62.7325 7.82263 65.0397 5.01141 67.9997 3.03355C70.9598 1.05568 74.4399 -4.24533e-08 78 0V18H96Z" fill="#0099FF"/>
<circle id="icon_4" cx="18" cy="18" r="18" fill="#FFA1AA"/>
</g>
</svg>
